<svg clip-rule="evenodd" fill-rule="evenodd" stroke-linejoin="round" stroke-miterlimit="2" viewBox="0 0 34 15" xmlns="http://www.w3.org/2000/svg"><path d="m179.8 11.8h-17.1c-1.9 0-3.6 1.4-3.8 3.3-.3 2.6-2.3 4.1-4.7 4.2-2.6 0-4.7-2.1-4.7-4.7s2.1-4.7 4.7-4.7c1.7 0 3.2.9 4 2.3.1.1.2.1.3 0 .5-.6 1.1-1.1 1.8-1.4.1 0 .1-.2.1-.3-1.3-2-3.6-3.3-6.2-3.3-4.1 0-7.4 3.3-7.5 7.5 0 4.1 3.3 7.5 7.5 7.5 3.8-.1 7-2.6 7.4-6.6.1-.5.5-.9 1.1-.9h14.6v2c0 1.1-.3 2.7-1.7 2.7s-1.7-1.6-1.7-2.7v-.6c0-.1-.1-.2-.2-.2h-2.4c-.1 0-.2.1-.2.2v.5c0 1.1-.3 2.7-1.7 2.7s-1.7-1.6-1.7-2.7v-.5c0-.1-.1-.2-.2-.2h-2.4c-.1 0-.2.1-.2.2v.5c0 2.7 1.5 5.4 4.4 5.4 1.2 0 2.3-.5 3-1.4.8.9 1.8 1.4 3 1.4 3 0 4.4-2.8 4.4-5.4v-4.6c.4-.1.3-.2.1-.2" fill="#e9004c" fill-rule="nonzero" transform="translate(-146.7 -7.2)"/></svg>