<?xml version="1.0" standalone="no"?><svg xmlns:xlink="http://www.w3.org/1999/xlink" xmlns="http://www.w3.org/2000/svg" viewBox="0 0 1000 149.994708994709" preserveAspectRatio="xMaxYMax slice"><g transform="scale(0.8818342151675485)"><rect x="0" y="0" width="1134" height="170.10000000000002" fill="#5b6e8e"/><rect x="0" y="0" width="56.7" height="56.7" fill="#5b6e8e"/><rect x="0" y="0" width="56.7" height="56.7" fill="#5b6e8e"/><rect x="56.7" y="0" width="56.7" height="56.7" fill="#5b6e8e"/><rect x="56.7" y="0" width="56.7" height="56.7" fill="#586a89"/><rect x="113.4" y="0" width="56.7" height="56.7" fill="#4f607b"/><rect x="113.4" y="0" width="56.7" height="56.7" fill="#52637f"/><rect x="170.1" y="0" width="56.7" height="56.7" fill="#566785"/><rect x="170.1" y="0" width="56.7" height="56.7" fill="#5b6e8e"/><rect x="226.8" y="0" width="56.7" height="56.7" fill="#5b6e8e"/><rect x="226.8" y="0" width="56.7" height="56.7" fill="#566886"/><rect x="283.5" y="0" width="56.7" height="56.7" fill="#5b6e8e"/><rect x="283.5" y="0" width="56.7" height="56.7" fill="#5b6e8e"/><rect x="340.2" y="0" width="56.7" height="56.7" fill="#5b6e8e"/><rect x="340.2" y="0" width="56.7" height="56.7" fill="#5b6e8e"/><rect x="396.9" y="0" width="56.7" height="56.7" fill="#5b6e8e"/><rect x="396.9" y="0" width="56.7" height="56.7" fill="#5b6e8e"/><rect x="453.6" y="0" width="56.7" height="56.7" fill="#576987"/><rect x="453.6" y="0" width="56.7" height="56.7" fill="#5b6e8e"/><rect x="510.3" y="0" width="56.7" height="56.7" fill="#5b6e8e"/><rect x="510.3" y="0" width="56.7" height="56.7" fill="#4e5e79"/><rect x="567" y="0" width="56.7" height="56.7" fill="#596b8b"/><rect x="567" y="0" width="56.7" height="56.7" fill="#526380"/><rect x="623.7" y="0" width="56.7" height="56.7" fill="#566886"/><rect x="623.7" y="0" width="56.7" height="56.7" fill="#5a6d8c"/><rect x="680.4" y="0" width="56.7" height="56.7" fill="#576988"/><rect x="680.4" y="0" width="56.7" height="56.7" fill="#576987"/><rect x="737.1" y="0" width="56.7" height="56.7" fill="#556785"/><rect x="737.1" y="0" width="56.7" height="56.7" fill="#5b6e8e"/><rect x="793.8" y="0" width="56.7" height="56.7" fill="#576988"/><rect x="793.8" y="0" width="56.7" height="56.7" fill="#5b6e8e"/><rect x="850.5" y="0" width="56.7" height="56.7" fill="#596b8a"/><rect x="850.5" y="0" width="56.7" height="56.7" fill="#586b8a"/><rect x="907.2" y="0" width="56.7" height="56.7" fill="#4f5f7a"/><rect x="907.2" y="0" width="56.7" height="56.7" fill="#5b6e8d"/><rect x="963.9" y="0" width="56.7" height="56.7" fill="#4f5f7b"/><rect x="963.9" y="0" width="56.7" height="56.7" fill="#5b6e8e"/><rect x="1020.6" y="0" width="56.7" height="56.7" fill="#5b6e8e"/><rect x="1020.6" y="0" width="56.7" height="56.7" fill="#5b6e8e"/><rect x="1077.3" y="0" width="56.7" height="56.7" fill="#5b6e8e"/><rect x="1077.3" y="0" width="56.7" height="56.7" fill="#556785"/><rect x="0" y="56.7" width="56.7" height="56.7" fill="#5b6e8e"/><rect x="0" y="56.7" width="56.7" height="56.7" fill="#586a88"/><rect x="56.7" y="56.7" width="56.7" height="56.7" fill="#546582"/><rect x="56.7" y="56.7" width="56.7" height="56.7" fill="#5b6e8e"/><rect x="113.4" y="56.7" width="56.7" height="56.7" fill="#556784"/><rect x="113.4" y="56.7" width="56.7" height="56.7" fill="#5b6e8e"/><rect x="170.1" y="56.7" width="56.7" height="56.7" fill="#4f607b"/><rect x="170.1" y="56.7" width="56.7" height="56.7" fill="#5b6e8e"/><rect x="226.8" y="56.7" width="56.7" height="56.7" fill="#5b6e8e"/><rect x="226.8" y="56.7" width="56.7" height="56.7" fill="#5b6e8e"/><rect x="283.5" y="56.7" width="56.7" height="56.7" fill="#4f5f7b"/><rect x="283.5" y="56.7" width="56.7" height="56.7" fill="#5b6e8e"/><rect x="340.2" y="56.7" width="56.7" height="56.7" fill="#5b6e8e"/><rect x="340.2" y="56.7" width="56.7" height="56.7" fill="#586a89"/><rect x="396.9" y="56.7" width="56.7" height="56.7" fill="#5b6e8e"/><rect x="396.9" y="56.7" width="56.7" height="56.7" fill="#5b6e8e"/><rect x="453.6" y="56.7" width="56.7" height="56.7" fill="#5b6e8e"/><rect x="453.6" y="56.7" width="56.7" height="56.7" fill="#5b6e8e"/><rect x="510.3" y="56.7" width="56.7" height="56.7" fill="#51627f"/><rect x="510.3" y="56.7" width="56.7" height="56.7" fill="#586a89"/><rect x="567" y="56.7" width="56.7" height="56.7" fill="#536582"/><rect x="567" y="56.7" width="56.7" height="56.7" fill="#5b6e8e"/><rect x="623.7" y="56.7" width="56.7" height="56.7" fill="#536481"/><rect x="623.7" y="56.7" width="56.7" height="56.7" fill="#5b6e8e"/><rect x="680.4" y="56.7" width="56.7" height="56.7" fill="#5b6e8e"/><rect x="680.4" y="56.7" width="56.7" height="56.7" fill="#50607c"/><rect x="737.1" y="56.7" width="56.7" height="56.7" fill="#576988"/><rect x="737.1" y="56.7" width="56.7" height="56.7" fill="#50607c"/><rect x="793.8" y="56.7" width="56.7" height="56.7" fill="#5b6e8e"/><rect x="793.8" y="56.7" width="56.7" height="56.7" fill="#5b6e8e"/><rect x="850.5" y="56.7" width="56.7" height="56.7" fill="#5b6e8e"/><rect x="850.5" y="56.7" width="56.7" height="56.7" fill="#5b6e8e"/><rect x="907.2" y="56.7" width="56.7" height="56.7" fill="#5b6e8e"/><rect x="907.2" y="56.7" width="56.7" height="56.7" fill="#526380"/><rect x="963.9" y="56.7" width="56.7" height="56.7" fill="#526380"/><rect x="963.9" y="56.7" width="56.7" height="56.7" fill="#51627e"/><rect x="1020.6" y="56.7" width="56.7" height="56.7" fill="#536481"/><rect x="1020.6" y="56.7" width="56.7" height="56.7" fill="#5b6e8e"/><rect x="1077.3" y="56.7" width="56.7" height="56.7" fill="#536582"/><rect x="1077.3" y="56.7" width="56.7" height="56.7" fill="#5b6e8e"/><rect x="0" y="113.4" width="56.7" height="56.7" fill="#52637f"/><rect x="0" y="113.4" width="56.7" height="56.7" fill="#5b6e8e"/><rect x="56.7" y="113.4" width="56.7" height="56.7" fill="#576987"/><rect x="56.7" y="113.4" width="56.7" height="56.7" fill="#536481"/><rect x="113.4" y="113.4" width="56.7" height="56.7" fill="#5b6e8e"/><rect x="113.4" y="113.4" width="56.7" height="56.7" fill="#5b6e8e"/><rect x="170.1" y="113.4" width="56.7" height="56.7" fill="#5b6e8e"/><rect x="170.1" y="113.4" width="56.7" height="56.7" fill="#5b6e8e"/><rect x="226.8" y="113.4" width="56.7" height="56.7" fill="#5b6e8e"/><rect x="226.8" y="113.4" width="56.7" height="56.7" fill="#546582"/><rect x="283.5" y="113.4" width="56.7" height="56.7" fill="#5b6e8e"/><rect x="283.5" y="113.4" width="56.7" height="56.7" fill="#5b6e8e"/><rect x="340.2" y="113.4" width="56.7" height="56.7" fill="#5a6c8c"/><rect x="340.2" y="113.4" width="56.7" height="56.7" fill="#5b6e8e"/><rect x="396.9" y="113.4" width="56.7" height="56.7" fill="#536582"/><rect x="396.9" y="113.4" width="56.7" height="56.7" fill="#5b6e8e"/><rect x="453.6" y="113.4" width="56.7" height="56.7" fill="#5b6e8e"/><rect x="453.6" y="113.4" width="56.7" height="56.7" fill="#5b6e8e"/><rect x="510.3" y="113.4" width="56.7" height="56.7" fill="#576a88"/><rect x="510.3" y="113.4" width="56.7" height="56.7" fill="#51627f"/><rect x="567" y="113.4" width="56.7" height="56.7" fill="#596c8b"/><rect x="567" y="113.4" width="56.7" height="56.7" fill="#5b6e8e"/><rect x="623.7" y="113.4" width="56.7" height="56.7" fill="#586a89"/><rect x="623.7" y="113.4" width="56.7" height="56.7" fill="#4f5f7a"/><rect x="680.4" y="113.4" width="56.7" height="56.7" fill="#5b6e8e"/><rect x="680.4" y="113.4" width="56.7" height="56.7" fill="#556785"/><rect x="737.1" y="113.4" width="56.7" height="56.7" fill="#556785"/><rect x="737.1" y="113.4" width="56.7" height="56.7" fill="#5b6e8e"/><rect x="793.8" y="113.4" width="56.7" height="56.7" fill="#566886"/><rect x="793.8" y="113.4" width="56.7" height="56.7" fill="#5b6e8e"/><rect x="850.5" y="113.4" width="56.7" height="56.7" fill="#4f5f7a"/><rect x="850.5" y="113.4" width="56.7" height="56.7" fill="#4f5f7a"/><rect x="907.2" y="113.4" width="56.7" height="56.7" fill="#5b6e8e"/><rect x="907.2" y="113.4" width="56.7" height="56.7" fill="#5b6e8e"/><rect x="963.9" y="113.4" width="56.7" height="56.7" fill="#5b6e8e"/><rect x="963.9" y="113.4" width="56.7" height="56.7" fill="#5b6e8e"/><rect x="1020.6" y="113.4" width="56.7" height="56.7" fill="#50617d"/><rect x="1020.6" y="113.4" width="56.7" height="56.7" fill="#4f5f7a"/><rect x="1077.3" y="113.4" width="56.7" height="56.7" fill="#5b6e8e"/><rect x="1077.3" y="113.4" width="56.7" height="56.7" fill="#5b6e8e"/></g></svg>