<?xml version="1.0" standalone="no"?>
<!DOCTYPE svg PUBLIC "-//W3C//DTD SVG 20010904//EN"
 "http://www.w3.org/TR/2001/REC-SVG-20010904/DTD/svg10.dtd">
<svg version="1.0" xmlns="http://www.w3.org/2000/svg"
 width="3025.000000pt" height="3025.000000pt" viewBox="0 0 3025.000000 3025.000000"
 preserveAspectRatio="xMidYMid meet">
<metadata>
Created by potrace 1.11, written by Peter Selinger 2001-2013
</metadata>
<g transform="translate(0.000000,3025.000000) scale(0.100000,-0.100000)"
fill="#000000" stroke="none">
<path d="M14678 30245 c-2 -2 -84 -6 -183 -10 -99 -3 -199 -8 -223 -10 -24 -2
-97 -6 -161 -10 -65 -3 -129 -8 -142 -10 -13 -2 -67 -6 -119 -10 -52 -4 -107
-8 -123 -10 -15 -2 -62 -6 -105 -9 -42 -4 -88 -9 -102 -11 -14 -2 -52 -7 -85
-10 -53 -5 -140 -15 -255 -30 -19 -3 -84 -12 -145 -20 -60 -9 -128 -18 -150
-21 -22 -3 -62 -9 -90 -14 -27 -5 -63 -12 -80 -14 -60 -9 -120 -18 -140 -22
-11 -3 -36 -6 -55 -9 -19 -3 -46 -7 -60 -10 -14 -3 -38 -8 -55 -11 -16 -2 -75
-14 -130 -25 -55 -10 -111 -21 -125 -24 -14 -3 -59 -12 -100 -20 -41 -8 -85
-17 -98 -20 -13 -2 -31 -6 -40 -9 -9 -3 -28 -7 -42 -10 -83 -16 -154 -33 -395
-92 -121 -30 -242 -61 -270 -69 -27 -8 -160 -46 -295 -84 -269 -77 -819 -255
-950 -308 -8 -4 -17 -7 -20 -7 -17 -4 -514 -198 -564 -220 -17 -8 -80 -34
-141 -59 -60 -25 -123 -52 -140 -60 -16 -8 -64 -29 -105 -47 -41 -18 -121 -54
-178 -81 -56 -27 -105 -49 -108 -49 -8 0 -484 -237 -624 -311 -194 -103 -449
-246 -645 -363 -93 -55 -177 -104 -185 -109 -8 -4 -42 -25 -75 -47 -33 -21
-80 -51 -105 -66 -57 -34 -603 -399 -690 -461 -186 -133 -667 -497 -690 -523
-3 -3 -41 -34 -85 -68 -44 -34 -89 -71 -100 -81 -11 -10 -78 -67 -150 -126
-71 -60 -132 -112 -135 -115 -3 -3 -43 -39 -90 -80 -47 -41 -87 -77 -90 -80
-3 -3 -30 -27 -60 -55 -241 -216 -721 -690 -910 -896 -47 -51 -94 -102 -105
-113 -35 -37 -249 -279 -305 -346 -30 -36 -61 -71 -69 -79 -68 -72 -365 -448
-634 -802 -21 -27 -59 -81 -164 -229 -57 -80 -107 -150 -111 -155 -5 -6 -68
-100 -142 -210 -199 -300 -461 -727 -600 -980 -18 -33 -52 -94 -75 -135 -186
-333 -453 -880 -629 -1290 -37 -85 -71 -164 -76 -175 -14 -31 -121 -299 -124
-310 -2 -5 -8 -21 -13 -35 -74 -172 -310 -863 -382 -1115 -11 -38 -31 -110
-46 -159 -45 -152 -192 -720 -202 -781 -3 -16 -18 -88 -34 -159 -16 -72 -32
-144 -35 -160 -3 -17 -9 -49 -14 -71 -5 -22 -11 -55 -15 -73 -3 -18 -12 -64
-20 -102 -8 -38 -17 -84 -20 -102 -3 -18 -7 -44 -10 -58 -3 -14 -7 -38 -9 -55
-3 -16 -12 -73 -21 -125 -9 -52 -18 -104 -20 -115 -14 -102 -36 -254 -39 -270
-2 -11 -7 -46 -11 -79 -3 -32 -8 -68 -10 -80 -2 -11 -11 -86 -20 -166 -9 -80
-18 -156 -20 -170 -2 -14 -7 -56 -10 -95 -3 -38 -7 -88 -10 -110 -4 -37 -13
-140 -20 -240 -2 -22 -6 -85 -10 -140 -3 -55 -8 -125 -10 -155 -27 -388 -26
-1359 0 -1740 2 -30 7 -95 10 -145 8 -126 14 -212 19 -265 3 -25 7 -76 11
-115 3 -38 8 -90 10 -115 3 -25 7 -67 10 -95 4 -47 12 -117 20 -175 2 -14 6
-50 10 -80 3 -30 15 -120 26 -200 11 -80 22 -160 24 -177 2 -18 7 -48 10 -65
9 -57 15 -91 30 -188 25 -149 25 -152 36 -210 6 -30 12 -66 15 -80 2 -14 7
-36 9 -50 3 -14 8 -36 10 -50 27 -138 37 -188 55 -270 11 -52 29 -138 40 -190
11 -52 32 -140 46 -195 14 -55 29 -118 35 -140 109 -458 330 -1165 527 -1685
182 -479 399 -971 633 -1435 113 -223 250 -485 269 -510 4 -5 27 -46 50 -90
24 -44 86 -152 138 -240 52 -88 101 -171 109 -185 8 -14 22 -37 31 -52 9 -15
53 -85 97 -155 43 -70 83 -129 87 -131 4 -2 8 -8 8 -13 0 -12 269 -412 395
-589 191 -266 444 -598 588 -770 6 -8 30 -37 51 -65 22 -27 42 -52 45 -55 5
-4 98 -114 186 -219 11 -13 25 -29 30 -35 6 -6 64 -72 129 -146 66 -74 129
-144 140 -156 12 -12 73 -77 136 -145 143 -154 539 -549 690 -689 62 -58 118
-110 124 -115 6 -6 58 -53 116 -104 58 -52 123 -110 145 -130 22 -20 67 -58
100 -86 85 -71 113 -95 159 -136 72 -63 385 -311 576 -455 444 -337 904 -646
1375 -926 110 -65 207 -122 215 -128 45 -27 325 -182 475 -261 186 -99 735
-369 750 -369 2 0 45 -20 97 -44 257 -120 835 -353 1098 -443 25 -8 54 -19 65
-24 38 -17 501 -168 655 -214 270 -81 709 -200 813 -221 10 -2 27 -6 37 -9 10
-3 27 -8 37 -10 10 -2 90 -20 178 -39 88 -20 261 -56 385 -81 213 -42 252 -49
318 -59 57 -10 228 -38 247 -42 11 -2 72 -11 135 -20 141 -19 169 -23 245 -34
33 -5 87 -12 120 -15 33 -3 71 -8 85 -10 51 -9 160 -20 285 -31 33 -3 74 -6
90 -9 17 -2 68 -6 115 -10 47 -3 101 -8 120 -10 19 -2 87 -7 150 -10 63 -4
133 -8 155 -10 316 -25 1460 -26 1725 0 19 1 91 6 160 10 69 3 136 8 150 10
14 2 63 6 110 10 47 4 99 8 115 9 17 2 68 7 115 11 47 4 92 9 100 10 8 1 47 6
85 9 39 4 77 9 85 11 8 2 44 6 80 10 36 3 75 7 85 9 11 2 45 7 75 11 30 4 62
9 71 10 9 2 40 6 70 10 30 3 134 19 231 36 97 16 194 31 215 34 48 6 368 67
528 101 337 71 862 204 1145 289 227 69 314 96 505 160 288 96 676 236 765
276 14 7 34 15 45 19 66 24 577 242 675 288 47 22 110 51 140 65 87 39 518
253 595 295 39 21 124 66 190 101 66 35 125 66 130 71 6 4 37 22 70 40 354
195 893 533 1265 795 206 145 562 408 645 477 5 5 87 70 180 145 94 75 197
159 230 187 33 28 71 61 85 72 83 71 349 306 406 359 18 17 81 75 140 130 156
145 518 507 674 674 169 181 151 162 240 262 41 46 80 89 85 95 6 6 34 38 62
70 993 1144 1805 2418 2415 3789 264 593 487 1199 681 1850 70 234 219 803
233 890 3 17 9 46 14 65 9 34 66 298 75 350 3 14 7 36 10 50 6 27 22 103 28
135 3 11 8 42 11 68 4 27 9 59 12 70 13 67 64 379 69 417 3 25 7 56 10 70 2
14 7 43 9 65 12 97 17 132 21 155 2 14 7 48 9 75 15 141 18 170 21 175 2 3 6
41 10 85 4 44 8 94 10 110 1 17 6 66 10 110 4 44 8 96 10 115 11 114 15 166
20 260 3 58 8 130 10 160 26 297 25 1440 0 1729 -2 25 -7 96 -10 156 -4 61 -8
126 -10 145 -2 19 -6 71 -10 115 -4 44 -8 94 -10 110 -2 17 -6 66 -10 110 -4
44 -8 91 -10 105 -2 14 -6 50 -10 80 -3 30 -8 71 -10 90 -19 155 -27 219 -30
245 -30 222 -29 218 -55 375 -38 234 -58 341 -96 535 -15 72 -28 144 -31 160
-2 17 -8 44 -13 60 -5 17 -16 66 -25 110 -9 44 -18 88 -20 98 -12 58 -109 447
-130 522 -14 50 -28 101 -31 115 -5 25 -39 144 -112 390 -119 401 -339 1018
-487 1365 -7 17 -23 55 -35 85 -12 30 -30 73 -40 95 -10 22 -41 94 -70 160
-29 66 -74 166 -101 223 -27 57 -49 106 -49 108 0 23 -354 709 -500 969 -249
445 -668 1102 -901 1415 -223 300 -384 516 -389 520 -3 3 -53 64 -110 135
-161 202 -310 378 -455 540 -40 44 -96 107 -125 140 -185 209 -589 621 -845
862 -167 156 -190 178 -326 298 -102 91 -352 306 -425 365 -189 154 -298 240
-384 305 -58 44 -110 84 -117 90 -7 5 -18 15 -25 20 -15 12 -346 253 -374 273
-11 7 -62 42 -114 79 -134 94 -436 292 -625 410 -233 146 -459 276 -819 475
-11 6 -38 21 -60 33 -311 173 -995 492 -1431 667 -151 61 -198 79 -355 137
-47 17 -94 36 -105 41 -79 36 -666 229 -940 309 -266 77 -351 100 -555 151
-113 28 -216 53 -230 57 -40 10 -44 11 -73 16 -15 3 -35 8 -45 11 -9 3 -29 8
-44 11 -35 6 -51 10 -168 35 -95 21 -186 39 -335 66 -44 8 -96 19 -115 24 -19
5 -55 11 -80 14 -25 4 -57 8 -72 11 -16 3 -40 7 -55 10 -16 3 -48 7 -73 11
-25 3 -52 7 -60 9 -8 3 -31 7 -50 10 -98 14 -329 46 -360 50 -54 6 -128 15
-210 25 -115 14 -170 20 -235 25 -33 3 -85 7 -115 10 -104 11 -135 13 -230 20
-52 3 -111 8 -130 10 -19 2 -93 7 -165 11 -71 3 -161 8 -200 10 -80 5 -1113
13 -1117 9z"/>
</g>
</svg>
